<mxfile host="www.draw.io" modified="2020-01-02T09:50:13.281Z" agent="Mozilla/5.0 (Windows NT 10.0; Win64; x64) AppleWebKit/537.36 (KHTML, like Gecko) Chrome/79.0.3945.88 Safari/537.36" etag="3NJuKSVaYxhaOXFugGij" version="12.4.8" type="github">
  <diagram id="tTCKdC9KljRwlCymSo3_" name="Page-1">
    <mxGraphModel dx="1038" dy="580" grid="1" gridSize="10" guides="1" tooltips="1" connect="1" arrows="1" fold="1" page="1" pageScale="1" pageWidth="827" pageHeight="1169" math="0" shadow="0">
      <root>
        <mxCell id="0"/>
        <mxCell id="1" parent="0"/>
        <mxCell id="voE9kG4gJwEoDcHYC2be-3" value="" style="rounded=1;whiteSpace=wrap;html=1;fontSize=20;labelBackgroundColor=none;fontColor=#000000;dashed=1;" parent="1" vertex="1">
          <mxGeometry x="120" y="340" width="320" height="110" as="geometry"/>
        </mxCell>
        <mxCell id="voE9kG4gJwEoDcHYC2be-4" value="" style="rounded=0;whiteSpace=wrap;html=1;fillColor=#fff2cc;strokeColor=#d6b656;gradientColor=#ffd966;" parent="1" vertex="1">
          <mxGeometry x="230" y="355" width="40" height="80" as="geometry"/>
        </mxCell>
        <mxCell id="voE9kG4gJwEoDcHYC2be-5" value="Conv3" style="text;html=1;strokeColor=none;fillColor=none;align=center;verticalAlign=middle;whiteSpace=wrap;rounded=0;rotation=-90;fontSize=20;" parent="1" vertex="1">
          <mxGeometry x="230" y="385" width="40" height="20" as="geometry"/>
        </mxCell>
        <mxCell id="voE9kG4gJwEoDcHYC2be-6" style="edgeStyle=orthogonalEdgeStyle;rounded=0;orthogonalLoop=1;jettySize=auto;html=1;exitX=1;exitY=0.5;exitDx=0;exitDy=0;fontSize=20;fontColor=#000000;" parent="1" source="voE9kG4gJwEoDcHYC2be-7" edge="1">
          <mxGeometry relative="1" as="geometry">
            <mxPoint x="340" y="395" as="targetPoint"/>
          </mxGeometry>
        </mxCell>
        <mxCell id="voE9kG4gJwEoDcHYC2be-7" value="" style="rounded=0;whiteSpace=wrap;html=1;fillColor=#d5e8d4;strokeColor=#82b366;gradientColor=#97d077;" parent="1" vertex="1">
          <mxGeometry x="270" y="355" width="40" height="80" as="geometry"/>
        </mxCell>
        <mxCell id="voE9kG4gJwEoDcHYC2be-8" value="PReLU" style="text;html=1;strokeColor=none;fillColor=none;align=center;verticalAlign=middle;whiteSpace=wrap;rounded=0;rotation=-90;fontSize=20;" parent="1" vertex="1">
          <mxGeometry x="270" y="385" width="40" height="20" as="geometry"/>
        </mxCell>
        <mxCell id="voE9kG4gJwEoDcHYC2be-9" value="" style="rounded=0;whiteSpace=wrap;html=1;fillColor=#fff2cc;strokeColor=#d6b656;gradientColor=#ffd966;" parent="1" vertex="1">
          <mxGeometry x="340" y="355" width="40" height="80" as="geometry"/>
        </mxCell>
        <mxCell id="voE9kG4gJwEoDcHYC2be-10" value="Conv3" style="text;html=1;strokeColor=none;fillColor=none;align=center;verticalAlign=middle;whiteSpace=wrap;rounded=0;rotation=-90;fontSize=20;" parent="1" vertex="1">
          <mxGeometry x="340" y="385" width="40" height="20" as="geometry"/>
        </mxCell>
        <mxCell id="voE9kG4gJwEoDcHYC2be-11" value="" style="rounded=0;whiteSpace=wrap;html=1;fillColor=#d5e8d4;strokeColor=#82b366;gradientColor=#97d077;" parent="1" vertex="1">
          <mxGeometry x="380" y="355" width="40" height="80" as="geometry"/>
        </mxCell>
        <mxCell id="voE9kG4gJwEoDcHYC2be-12" value="PReLU" style="text;html=1;strokeColor=none;fillColor=none;align=center;verticalAlign=middle;whiteSpace=wrap;rounded=0;rotation=-90;fontSize=20;" parent="1" vertex="1">
          <mxGeometry x="380" y="385" width="40" height="20" as="geometry"/>
        </mxCell>
        <mxCell id="voE9kG4gJwEoDcHYC2be-13" style="edgeStyle=orthogonalEdgeStyle;rounded=0;orthogonalLoop=1;jettySize=auto;html=1;exitX=1;exitY=0.5;exitDx=0;exitDy=0;fontSize=20;fontColor=#000000;" parent="1" edge="1">
          <mxGeometry relative="1" as="geometry">
            <mxPoint x="470" y="395" as="targetPoint"/>
            <mxPoint x="420" y="395" as="sourcePoint"/>
          </mxGeometry>
        </mxCell>
        <mxCell id="voE9kG4gJwEoDcHYC2be-15" value="In" style="text;html=1;strokeColor=none;fillColor=none;align=center;verticalAlign=middle;whiteSpace=wrap;rounded=0;dashed=1;labelBackgroundColor=none;fontSize=20;fontColor=#000000;" parent="1" vertex="1">
          <mxGeometry x="80" y="365" width="40" height="20" as="geometry"/>
        </mxCell>
        <mxCell id="voE9kG4gJwEoDcHYC2be-16" value="Out" style="text;html=1;strokeColor=none;fillColor=none;align=center;verticalAlign=middle;whiteSpace=wrap;rounded=0;dashed=1;labelBackgroundColor=none;fontSize=20;fontColor=#000000;" parent="1" vertex="1">
          <mxGeometry x="440" y="365" width="40" height="20" as="geometry"/>
        </mxCell>
        <mxCell id="eCnB21ttbd_a6acWIowY-7" style="edgeStyle=orthogonalEdgeStyle;rounded=0;orthogonalLoop=1;jettySize=auto;html=1;entryX=0;entryY=0.5;entryDx=0;entryDy=0;" edge="1" parent="1" source="eCnB21ttbd_a6acWIowY-5" target="voE9kG4gJwEoDcHYC2be-4">
          <mxGeometry relative="1" as="geometry"/>
        </mxCell>
        <mxCell id="eCnB21ttbd_a6acWIowY-5" value="&lt;font style=&quot;font-size: 20px&quot;&gt;MAX&lt;br&gt;Pooling&lt;/font&gt;" style="rounded=0;whiteSpace=wrap;html=1;fillColor=#e6d0de;strokeColor=#996185;rotation=-90;gradientColor=#d5739d;" vertex="1" parent="1">
          <mxGeometry x="130" y="363.75" width="78" height="62.5" as="geometry"/>
        </mxCell>
        <mxCell id="eCnB21ttbd_a6acWIowY-10" style="edgeStyle=orthogonalEdgeStyle;rounded=0;orthogonalLoop=1;jettySize=auto;html=1;exitX=1;exitY=0.5;exitDx=0;exitDy=0;fontSize=20;fontColor=#000000;" edge="1" parent="1">
          <mxGeometry relative="1" as="geometry">
            <mxPoint x="138" y="394.66" as="targetPoint"/>
            <mxPoint x="88" y="394.66" as="sourcePoint"/>
          </mxGeometry>
        </mxCell>
      </root>
    </mxGraphModel>
  </diagram>
</mxfile>
